{"title":"Chappie (2015) CAMRip [RUS]","uid":11745712,"size":1563998208,"categoryP":"video","categoryS":"movies","magnet":"?xt=urn:btih:5687a2a11c3195587a7515d1c147e4c7dce69135&amp;dn=Chappie+%282015%29+CAMRip+%5BRUS%5D&amp;tr=udp%3A%2F%2Ftracker.openbittorrent.com%3A80&amp;tr=udp%3A%2F%2Fopen.demonii.com%3A1337&amp;tr=udp%3A%2F%2Ftracker.coppersurfer.tk%3A6969&amp;tr=udp%3A%2F%2Fexodus.desync.com%3A6969","seeders":282,"leechers":6,"uploader":"yfjfrj","files":1,"time":1426006747,"description":"Chappie (2015) CAMRip \n\nMI:\nGeneral\nFormat                                   : AVI\nFormat/Info                              : Audio Video Interleave\nFile size                                : 1.46 GiB\nDuration                                 : 1h 55mn\nOverall bit rate                         : 1 799 Kbps\nWriting application                      : VirtualDubMod 1.5.10.2 (build 2540/release)\nWriting library                          : VirtualDubMod build 2540/release\n\nVideo\nID                                       : 0\nFormat                                   : MPEG-4 Visual\nFormat profile                           : Advanced Simple@L5\nFormat settings, BVOP                    : 2\nFormat settings, QPel                    : No\nFormat settings, GMC                     : No warppoints\nFormat settings, Matrix                  : Default (MPEG)\nCodec ID                                 : XVID\nCodec ID/Hint                            : XviD\nDuration                                 : 1h 55mn\nBit rate                                 : 1 662 Kbps\nWidth                                    : 720 pixels\nHeight                                   : 400 pixels\nDisplay aspect ratio                     : 16:9\nFrame rate                               : 23.976 fps\nColor space                              : YUV\nChroma subsampling                       : 4:2:0\nBit depth                                : 8 bits\nScan type                                : Progressive\nCompression mode                         : Lossy\nBits/(Pixel*Frame)                       : 0.241\nStream size                              : 1.35 GiB (92%)\nWriting library                          : XviD 1.2.1 (UTC 2008-12-04)\n\nAudio\nID                                       : 1\nFormat                                   : AC-3\nFormat/Info                              : Audio Coding 3\nMode extension                           : CM (complete main)\nFormat settings, Endianness              : Big\nCodec ID                                 : 2000\nDuration                                 : 1h 55mn\nBit rate mode                            : Constant\nBit rate                                 : 128 Kbps\nChannel(s)                               : 2 channels\nChannel positions                        : Front: L R\nSampling rate                            : 48.0 KHz\nBit depth                                : 16 bits\nCompression mode                         : Lossy\nStream size                              : 106 MiB (7%)\nAlignment                                : Split accross interleaves\nInterleave, duration                     : 42 ms (1.00 video frame)\nInterleave, preload duration             : 500 ms\n\n\nScreens: &lt;a href=&quot;\nhttp://i4.imageban.ru/out/2015/03/10/9bb0bb5ca9305462d6978d617e902338.png&quot; rel=&quot;nofollow&quot; target=&quot;_NEW&quot;&gt;\nhttp://i4.imageban.ru/out/2015/03/10/9bb0bb5ca9305462d6978d617e902338.png&lt;/a&gt; &lt;a href=&quot;\nhttp://i6.imageban.ru/out/2015/03/10/0a732114f2c8e2158ce1a56c7d2a2cf1.png&quot; rel=&quot;nofollow&quot; target=&quot;_NEW&quot;&gt;\nhttp://i6.imageban.ru/out/2015/03/10/0a732114f2c8e2158ce1a56c7d2a2cf1.png&lt;/a&gt; &lt;a href=&quot;\nhttp://i6.imageban.ru/out/2015/03/10/1b8c980f9834fa324fb65f94818ef2b0.png&quot; rel=&quot;nofollow&quot; target=&quot;_NEW&quot;&gt;\nhttp://i6.imageban.ru/out/2015/03/10/1b8c980f9834fa324fb65f94818ef2b0.png&lt;/a&gt; &lt;a href=&quot;\nhttp://i5.imageban.ru/out/2015/03/10/e5c3ebb847f53f22a3c6b3e321055817.png&quot; rel=&quot;nofollow&quot; target=&quot;_NEW&quot;&gt;\nhttp://i5.imageban.ru/out/2015/03/10/e5c3ebb847f53f22a3c6b3e321055817.png&lt;/a&gt;","torrent":{"xt":"urn:btih:5687a2a11c3195587a7515d1c147e4c7dce69135","amp;dn":"Chappie+%282015%29+CAMRip+%5BRUS%5D","amp;tr":["udp%3A%2F%2Ftracker.openbittorrent.com%3A80","udp%3A%2F%2Fopen.demonii.com%3A1337","udp%3A%2F%2Ftracker.coppersurfer.tk%3A6969","udp%3A%2F%2Fexodus.desync.com%3A6969"],"infoHash":"5687a2a11c3195587a7515d1c147e4c7dce69135","infoHashBuffer":{"type":"Buffer","data":[86,135,162,161,28,49,149,88,122,117,21,209,193,71,228,199,220,230,145,53]},"announce":[],"urlList":[]}}